<?xml version="1.0" encoding="UTF-8" standalone="no"?><!DOCTYPE svg PUBLIC "-//W3C//DTD SVG 1.1//EN" "http://www.w3.org/Graphics/SVG/1.1/DTD/svg11.dtd"><svg width="100%" height="100%" viewBox="0 0 3542 3542" version="1.1" xmlns="http://www.w3.org/2000/svg" xmlns:xlink="http://www.w3.org/1999/xlink" xml:space="preserve" xmlns:serif="http://www.serif.com/" style="fill-rule:evenodd;clip-rule:evenodd;stroke-linecap:round;stroke-linejoin:round;stroke-miterlimit:1.5;"><g><path d="M1870.69,2196.06c12.675,-1.358 25.316,-11.307 32.978,-18.105c6.518,-5.782 11.305,-14.133 12.995,-22.68c0.025,-11.869 0.319,-36.524 0.098,-46.718c-0.301,-3.227 -2.372,-7.821 -4.397,-11.33c-4.691,-8.124 -17.834,-19.305 -29.677,-22.641c-15.593,-1.806 -44.804,-1.145 -54.425,-1.028c-0.827,1.262 -0.437,-2.92 -0.665,-3.989c0.036,-13.223 0.169,-60.832 0.209,-75.168c-0.595,-4.973 -6.117,-9.092 -10.625,-11.925c-7.714,-4.848 -23.023,-13.382 -35.662,-17.162c-15.069,-4.506 -36.225,-9.098 -54.755,-9.875c-37.492,-1.572 -138.071,-0.05 -170.197,0.444c-7.566,0.116 -14.262,0.843 -22.559,2.52c-20.357,4.112 -66.071,15.459 -77.836,36.873c0.075,42.778 -0.068,5.136 0.156,89.04c0.666,10.512 4.421,20.813 6.566,30.909c4.328,20.371 16.933,55.436 29.184,79.332c11.845,23.103 30.703,48.437 44.322,64.045c10.453,11.98 21.83,22.437 37.392,29.608c29.033,0.283 78.107,-0.005 129.88,-0.008c37.002,-11.296 66.058,-68.985 88.626,-91.046c23.861,0.41 59.527,0.924 78.392,-1.096Z" style="stroke:#000;stroke-width:4.17px;"/><path d="M1466.69,2003.4c-0.481,6.891 12.974,33.84 112.21,43.359c54.025,-0.087 130.747,2.78 146.872,-0.236c33.31,-6.231 86.582,-20.531 91.127,-45.069c3.631,-19.602 -66.03,-37.938 -101.763,-38.295c-44.129,-0.439 -111.914,-3.075 -144.844,-1.063c-30.353,1.854 -101.722,14.368 -103.602,41.304Z" style="fill:#ffec00;stroke:#000;stroke-width:4.17px;"/><path d="M1900.45,2146.76c-4.266,9.561 -13.344,21.417 -27.331,29.337c-16.035,1.088 -28.117,0.234 -70.521,-0.191c6.065,-41.541 21.201,-74.82 46.631,-83.924c26.115,-7.036 47.537,14.089 51.303,27.111c2.823,9.403 2.903,18.77 -0.082,27.667Z" style="fill:#5fff00;stroke:#000;stroke-width:4.17px;"/></g></svg>